# xmcd
#
# Track frame offsets: 
#        150
#        13443
#        32201
#        53337
#        83286
#        100561
#        117791
#        135112
#        156270
#        174126
#        188048
#        212243
#
# Disc length: 3078 seconds
#
# Revision: 1
# Processed by: cddbd v1.5.2PL0 Copyright (c) Steve Scherf et al.
# Submitted via: ExactAudioCopy v0.99pb4
#
DISCID=850c040c
DTITLE=Ventus Blues Band - Woodstock
DYEAR=2011
DGENRE=Blues
TTITLE0=Facebook Blues
TTITLE1=She's So Fine
TTITLE2=Moving My Wheels
TTITLE3=Blues Ain't Bad
TTITLE4=From The Cradle To The Grave
TTITLE5=Beautiful Woman
TTITLE6=Selma
TTITLE7=Wind In My Hair
TTITLE8=Cold Cold Week
TTITLE9=57 Radio
TTITLE10=Black Cat Bone
TTITLE11=Morning Glory
EXTD=
EXTT0=
EXTT1=
EXTT2=
EXTT3=
EXTT4=
EXTT5=
EXTT6=
EXTT7=
EXTT8=
EXTT9=
EXTT10=
EXTT11=
PLAYORDER=
